<?xml version="1.0" encoding="utf-8"?>
<!-- Generator: Adobe Illustrator 15.0.2, SVG Export Plug-In . SVG Version: 6.00 Build 0)  -->
<!DOCTYPE svg PUBLIC "-//W3C//DTD SVG 1.1//EN" "http://www.w3.org/Graphics/SVG/1.1/DTD/svg11.dtd">
<svg version="1.1" id="Layer_1" xmlns="http://www.w3.org/2000/svg" xmlns:xlink="http://www.w3.org/1999/xlink" x="0px" y="0px"
	 width="162.19px" height="34.94px" viewBox="0 0 162.19 34.94" enable-background="new 0 0 162.19 34.94" xml:space="preserve">
<g>
	<path d="M13.44,0.672c4.64,0,8.52,1.608,11.64,4.824c3.12,3.216,4.68,7.208,4.68,11.976s-1.56,8.76-4.68,11.975
		c-3.12,3.217-7,4.824-11.64,4.824H0v-33.6H13.44z M13.44,26.88c2.655,0,4.808-0.855,6.456-2.567
		c1.647-1.712,2.472-3.992,2.472-6.84s-0.824-5.128-2.472-6.84c-1.648-1.711-3.801-2.568-6.456-2.568H7.68V26.88H13.44z"/>
	<path d="M42.239,26.88h13.44v7.392H34.56v-33.6h20.88v7.392h-13.2v5.568h12v7.296h-12V26.88z"/>
	<path d="M68.544,34.271L57.6,0.672H66l7.439,24.721l7.44-24.721h8.399l-10.943,33.6H68.544z"/>
	<path d="M92.639,0.672h7.68v33.6h-7.68V0.672z"/>
	<path d="M122.591,34.943c-5.024,0-9.192-1.671-12.504-5.016c-3.312-3.344-4.968-7.495-4.968-12.456
		c0-4.96,1.655-9.112,4.968-12.456C113.398,1.672,117.566,0,122.591,0c3.008,0,5.791,0.696,8.352,2.088s4.576,3.288,6.048,5.688
		l-6.623,3.84c-0.737-1.312-1.793-2.328-3.169-3.048c-1.376-0.72-2.912-1.08-4.607-1.08c-2.977,0-5.353,0.912-7.128,2.736
		c-1.776,1.824-2.664,4.24-2.664,7.248c0,3.008,0.888,5.424,2.664,7.249c1.775,1.823,4.151,2.735,7.128,2.735
		c1.695,0,3.24-0.368,4.632-1.104c1.392-0.735,2.439-1.743,3.145-3.023l6.623,3.84c-1.439,2.4-3.439,4.296-6,5.688
		C128.431,34.248,125.631,34.943,122.591,34.943z"/>
	<path d="M148.751,26.88h13.44v7.392h-21.12v-33.6h20.88v7.392h-13.2v5.568h12v7.296h-12V26.88z"/>
</g>
</svg>
